<?xml version="1.0" encoding="utf-8"?>
<!-- Svg Vector Icons : http://www.onlinewebfonts.com/icon -->
<!DOCTYPE svg PUBLIC "-//W3C//DTD SVG 1.1//EN" "http://www.w3.org/Graphics/SVG/1.1/DTD/svg11.dtd">
<svg version="1.1" xmlns="http://www.w3.org/2000/svg" xmlns:xlink="http://www.w3.org/1999/xlink" x="0px" y="0px" viewBox="0 0 1000 1000" enable-background="new 0 0 1000 1000" xml:space="preserve">
<metadata> Svg Vector Icons : http://www.onlinewebfonts.com/icon </metadata>
<g><g transform="translate(0.000000,511.000000) scale(0.100000,-0.100000)"><path d="M3156.1,4990.1c-91-9.1-125.1-22.7-122.8-47.8c2.3-18.2,254.7-957.3,563.9-2082.9c307-1127.9,559.4-2064.7,559.4-2082.9c0-27.3-206.9-38.6-1232.5-72.8c-677.6-22.7-1237-31.8-1239.3-22.7c-4.5,11.4-100,225.1-211.5,475.2L1271,1611.1l-131.9-4.6c-336.5-13.6-461.6-31.8-461.6-70.5c0-22.7,61.4-345.6,134.2-723.1l136.4-684.4L793.5-590.1c-91-434.3-143.3-720.8-129.6-723.1c13.6,0,150.1-13.7,302.4-27.3l275.1-27.3L1452.9-913c113.7,250.1,218.3,463.9,227.4,475.3c11.4,13.6,427.5,2.3,1071-27.3c1291.6-61.4,1405.3-70.5,1405.3-104.6c0-20.5-827.7-3158.5-1066.5-4040.7l-40.9-152.4l116-13.7c63.7-6.8,159.2-13.6,209.2-13.6h95.5l545.7,870.9c300.2,477.5,773.1,1232.5,1052.8,1675.9c277.4,443.4,632.1,1007.3,784.5,1250.7l279.7,443.4h1018.7H8170l261.5,70.5c350.2,95.5,591.2,197.8,759.5,325.2C9316.1-58,9329.7-39.8,9336.5,44.3c6.8,86.4-2.3,102.3-102.3,191c-204.7,179.6-593.5,341.1-1046,432c-209.2,40.9-316.1,45.5-1193.8,45.5h-964.1l-1021,1689.5c-1760,2906.1-1562.2,2596.8-1650.9,2599.1C3315.2,5003.7,3224.3,4996.9,3156.1,4990.1z"/></g></g>
</svg>